<svg xmlns="http://www.w3.org/2000/svg" xmlns:xlink="http://www.w3.org/1999/xlink" width="500" zoomAndPan="magnify" viewBox="0 0 375 374.999991" height="500" preserveAspectRatio="xMidYMid meet" version="1.0"><defs><clipPath id="id1"><path d="M 11.027344 45 L 364.277344 45 L 364.277344 370.367188 L 11.027344 370.367188 Z M 11.027344 45 " clip-rule="nonzero"/></clipPath><clipPath id="id2"><path d="M 65 4.367188 L 93 4.367188 L 93 73 L 65 73 Z M 65 4.367188 " clip-rule="nonzero"/></clipPath><clipPath id="id3"><path d="M 282 4.367188 L 310 4.367188 L 310 73 L 282 73 Z M 282 4.367188 " clip-rule="nonzero"/></clipPath><clipPath id="id4"><path d="M 11.027344 105 L 364.277344 105 L 364.277344 133 L 11.027344 133 Z M 11.027344 105 " clip-rule="nonzero"/></clipPath><clipPath id="id5"><path d="M 153.476562 146.398438 L 325.976562 146.398438 L 325.976562 333.898438 L 153.476562 333.898438 Z M 153.476562 146.398438 " clip-rule="nonzero"/></clipPath><clipPath id="id6"><path d="M 179 153.402344 L 216 153.402344 L 216 200 L 179 200 Z M 179 153.402344 " clip-rule="nonzero"/></clipPath><clipPath id="id7"><path d="M 256 153.402344 L 292 153.402344 L 292 200 L 256 200 Z M 256 153.402344 " clip-rule="nonzero"/></clipPath><clipPath id="id8"><path d="M 179 271 L 293 271 L 293 317.652344 L 179 317.652344 Z M 179 271 " clip-rule="nonzero"/></clipPath><clipPath id="id9"><path d="M 153.476562 204 L 218 204 L 218 241 L 153.476562 241 Z M 153.476562 204 " clip-rule="nonzero"/></clipPath><clipPath id="id10"><path d="M 253 204 L 317.726562 204 L 317.726562 241 L 253 241 Z M 253 204 " clip-rule="nonzero"/></clipPath></defs><g clip-path="url(#id1)"><path fill="#000000" d="M 350.582031 370.367188 L 24.726562 370.367188 C 23.835938 370.367188 22.953125 370.28125 22.078125 370.109375 C 21.203125 369.933594 20.355469 369.675781 19.53125 369.335938 C 18.707031 368.996094 17.925781 368.578125 17.183594 368.085938 C 16.441406 367.589844 15.757812 367.027344 15.125 366.398438 C 14.496094 365.769531 13.933594 365.085938 13.4375 364.34375 C 12.941406 363.605469 12.523438 362.824219 12.183594 362 C 11.839844 361.179688 11.582031 360.332031 11.410156 359.457031 C 11.234375 358.585938 11.148438 357.703125 11.148438 356.8125 L 11.148438 58.589844 C 11.148438 57.703125 11.234375 56.820312 11.410156 55.945312 C 11.582031 55.074219 11.839844 54.226562 12.183594 53.402344 C 12.523438 52.582031 12.941406 51.800781 13.4375 51.058594 C 13.933594 50.320312 14.496094 49.636719 15.125 49.007812 C 15.757812 48.375 16.441406 47.816406 17.183594 47.320312 C 17.925781 46.824219 18.707031 46.40625 19.53125 46.066406 C 20.355469 45.726562 21.203125 45.46875 22.078125 45.296875 C 22.953125 45.121094 23.835938 45.035156 24.726562 45.035156 L 350.582031 45.035156 C 351.472656 45.035156 352.355469 45.121094 353.230469 45.296875 C 354.105469 45.46875 354.953125 45.726562 355.777344 46.066406 C 356.601562 46.40625 357.382812 46.824219 358.125 47.320312 C 358.863281 47.816406 359.550781 48.375 360.179688 49.007812 C 360.8125 49.636719 361.375 50.320312 361.871094 51.058594 C 362.363281 51.800781 362.78125 52.582031 363.125 53.402344 C 363.464844 54.226562 363.722656 55.074219 363.898438 55.945312 C 364.070312 56.820312 364.15625 57.703125 364.15625 58.589844 L 364.15625 356.8125 C 364.15625 357.703125 364.070312 358.585938 363.898438 359.457031 C 363.722656 360.332031 363.464844 361.179688 363.125 362 C 362.78125 362.824219 362.363281 363.605469 361.871094 364.34375 C 361.375 365.085938 360.8125 365.769531 360.179688 366.398438 C 359.550781 367.027344 358.863281 367.589844 358.125 368.085938 C 357.382812 368.578125 356.601562 368.996094 355.777344 369.335938 C 354.953125 369.675781 354.105469 369.933594 353.230469 370.109375 C 352.355469 370.28125 351.472656 370.367188 350.582031 370.367188 Z M 38.304688 343.257812 L 337.003906 343.257812 L 337.003906 72.148438 L 38.304688 72.148438 Z M 38.304688 343.257812 " fill-opacity="1" fill-rule="nonzero"/></g><g clip-path="url(#id2)"><path fill="#000000" d="M 79.035156 72.148438 C 78.144531 72.148438 77.261719 72.058594 76.386719 71.886719 C 75.511719 71.710938 74.664062 71.457031 73.839844 71.113281 C 73.015625 70.773438 72.234375 70.355469 71.492188 69.863281 C 70.75 69.367188 70.066406 68.804688 69.433594 68.175781 C 68.804688 67.546875 68.242188 66.863281 67.746094 66.121094 C 67.25 65.382812 66.832031 64.601562 66.492188 63.777344 C 66.148438 62.957031 65.894531 62.109375 65.71875 61.234375 C 65.546875 60.363281 65.457031 59.480469 65.457031 58.589844 L 65.457031 17.925781 C 65.457031 17.035156 65.546875 16.152344 65.71875 15.28125 C 65.894531 14.40625 66.148438 13.558594 66.492188 12.738281 C 66.832031 11.914062 67.25 11.132812 67.746094 10.394531 C 68.242188 9.652344 68.804688 8.96875 69.433594 8.339844 C 70.066406 7.710938 70.75 7.148438 71.492188 6.652344 C 72.234375 6.160156 73.015625 5.742188 73.839844 5.402344 C 74.664062 5.058594 75.511719 4.804688 76.386719 4.628906 C 77.261719 4.457031 78.144531 4.367188 79.035156 4.367188 C 79.925781 4.367188 80.808594 4.457031 81.683594 4.628906 C 82.558594 4.804688 83.40625 5.058594 84.230469 5.402344 C 85.054688 5.742188 85.835938 6.160156 86.578125 6.652344 C 87.320312 7.148438 88.003906 7.710938 88.636719 8.339844 C 89.265625 8.96875 89.828125 9.652344 90.324219 10.394531 C 90.820312 11.132812 91.238281 11.914062 91.578125 12.738281 C 91.921875 13.558594 92.175781 14.40625 92.351562 15.28125 C 92.527344 16.152344 92.613281 17.035156 92.613281 17.925781 L 92.613281 58.589844 C 92.613281 59.480469 92.527344 60.363281 92.351562 61.234375 C 92.175781 62.109375 91.921875 62.957031 91.578125 63.777344 C 91.238281 64.601562 90.820312 65.382812 90.324219 66.121094 C 89.828125 66.863281 89.265625 67.546875 88.636719 68.175781 C 88.003906 68.804688 87.320312 69.367188 86.578125 69.863281 C 85.835938 70.355469 85.054688 70.773438 84.230469 71.113281 C 83.40625 71.457031 82.558594 71.710938 81.683594 71.886719 C 80.808594 72.058594 79.925781 72.148438 79.035156 72.148438 Z M 79.035156 72.148438 " fill-opacity="1" fill-rule="nonzero"/></g><g clip-path="url(#id3)"><path fill="#000000" d="M 296.273438 72.148438 C 295.378906 72.148438 294.496094 72.058594 293.621094 71.886719 C 292.75 71.710938 291.898438 71.457031 291.074219 71.113281 C 290.253906 70.773438 289.46875 70.355469 288.726562 69.863281 C 287.988281 69.367188 287.300781 68.804688 286.671875 68.175781 C 286.039062 67.546875 285.476562 66.863281 284.980469 66.121094 C 284.488281 65.382812 284.070312 64.601562 283.726562 63.777344 C 283.386719 62.957031 283.128906 62.109375 282.957031 61.234375 C 282.78125 60.363281 282.695312 59.480469 282.695312 58.589844 L 282.695312 17.925781 C 282.695312 17.035156 282.78125 16.152344 282.957031 15.28125 C 283.128906 14.40625 283.386719 13.558594 283.726562 12.738281 C 284.070312 11.914062 284.488281 11.132812 284.980469 10.394531 C 285.476562 9.652344 286.039062 8.96875 286.671875 8.339844 C 287.300781 7.710938 287.988281 7.148438 288.726562 6.652344 C 289.46875 6.160156 290.253906 5.742188 291.074219 5.402344 C 291.898438 5.058594 292.75 4.804688 293.621094 4.628906 C 294.496094 4.457031 295.378906 4.367188 296.273438 4.367188 C 297.164062 4.367188 298.046875 4.457031 298.921875 4.628906 C 299.792969 4.804688 300.644531 5.058594 301.46875 5.402344 C 302.289062 5.742188 303.074219 6.160156 303.816406 6.652344 C 304.554688 7.148438 305.242188 7.710938 305.871094 8.339844 C 306.503906 8.96875 307.066406 9.652344 307.558594 10.394531 C 308.054688 11.132812 308.472656 11.914062 308.816406 12.738281 C 309.15625 13.558594 309.414062 14.40625 309.585938 15.28125 C 309.761719 16.152344 309.847656 17.035156 309.847656 17.925781 L 309.847656 58.589844 C 309.847656 59.480469 309.761719 60.363281 309.585938 61.234375 C 309.414062 62.109375 309.15625 62.957031 308.816406 63.777344 C 308.472656 64.601562 308.054688 65.382812 307.5625 66.121094 C 307.066406 66.863281 306.503906 67.546875 305.871094 68.175781 C 305.242188 68.804688 304.554688 69.367188 303.816406 69.863281 C 303.074219 70.355469 302.289062 70.773438 301.46875 71.113281 C 300.644531 71.457031 299.792969 71.710938 298.921875 71.886719 C 298.046875 72.058594 297.164062 72.148438 296.273438 72.148438 Z M 296.273438 72.148438 " fill-opacity="1" fill-rule="nonzero"/></g><path fill="#000000" d="M 92.613281 153.480469 L 119.765625 153.480469 L 119.765625 180.589844 L 92.613281 180.589844 Z M 92.613281 153.480469 " fill-opacity="1" fill-rule="nonzero"/><path fill="#000000" d="M 174.074219 153.480469 L 201.230469 153.480469 L 201.230469 180.589844 L 174.074219 180.589844 Z M 174.074219 153.480469 " fill-opacity="1" fill-rule="nonzero"/><path fill="#000000" d="M 255.539062 153.480469 L 282.695312 153.480469 L 282.695312 180.589844 L 255.539062 180.589844 Z M 255.539062 153.480469 " fill-opacity="1" fill-rule="nonzero"/><path fill="#000000" d="M 92.613281 221.257812 L 119.765625 221.257812 L 119.765625 248.367188 L 92.613281 248.367188 Z M 92.613281 221.257812 " fill-opacity="1" fill-rule="nonzero"/><path fill="#000000" d="M 174.074219 221.257812 L 201.230469 221.257812 L 201.230469 248.367188 L 174.074219 248.367188 Z M 174.074219 221.257812 " fill-opacity="1" fill-rule="nonzero"/><path fill="#000000" d="M 255.539062 221.257812 L 282.695312 221.257812 L 282.695312 248.367188 L 255.539062 248.367188 Z M 255.539062 221.257812 " fill-opacity="1" fill-rule="nonzero"/><path fill="#000000" d="M 92.613281 289.035156 L 119.765625 289.035156 L 119.765625 316.148438 L 92.613281 316.148438 Z M 92.613281 289.035156 " fill-opacity="1" fill-rule="nonzero"/><path fill="#000000" d="M 174.074219 289.035156 L 201.230469 289.035156 L 201.230469 316.148438 L 174.074219 316.148438 Z M 174.074219 289.035156 " fill-opacity="1" fill-rule="nonzero"/><path fill="#000000" d="M 255.539062 289.035156 L 282.695312 289.035156 L 282.695312 316.148438 L 255.539062 316.148438 Z M 255.539062 289.035156 " fill-opacity="1" fill-rule="nonzero"/><g clip-path="url(#id4)"><path fill="#000000" d="M 350.582031 132.605469 L 24.726562 132.605469 C 23.835938 132.605469 22.953125 132.519531 22.078125 132.34375 C 21.203125 132.171875 20.355469 131.914062 19.53125 131.574219 C 18.707031 131.230469 17.925781 130.816406 17.183594 130.320312 C 16.441406 129.824219 15.757812 129.261719 15.125 128.632812 C 14.496094 128.003906 13.933594 127.320312 13.4375 126.582031 C 12.941406 125.839844 12.523438 125.058594 12.183594 124.238281 C 11.839844 123.414062 11.582031 122.566406 11.410156 121.695312 C 11.234375 120.820312 11.148438 119.9375 11.148438 119.050781 C 11.148438 118.160156 11.234375 117.277344 11.410156 116.40625 C 11.582031 115.53125 11.839844 114.683594 12.183594 113.863281 C 12.523438 113.039062 12.941406 112.257812 13.4375 111.519531 C 13.933594 110.777344 14.496094 110.09375 15.125 109.464844 C 15.757812 108.835938 16.441406 108.273438 17.183594 107.777344 C 17.925781 107.285156 18.707031 106.867188 19.53125 106.523438 C 20.355469 106.183594 21.203125 105.925781 22.078125 105.753906 C 22.953125 105.582031 23.835938 105.492188 24.726562 105.492188 L 350.582031 105.492188 C 351.472656 105.492188 352.355469 105.582031 353.230469 105.753906 C 354.105469 105.925781 354.953125 106.183594 355.777344 106.523438 C 356.601562 106.867188 357.382812 107.285156 358.125 107.777344 C 358.863281 108.273438 359.550781 108.835938 360.179688 109.464844 C 360.8125 110.09375 361.375 110.777344 361.871094 111.519531 C 362.363281 112.257812 362.78125 113.039062 363.125 113.863281 C 363.464844 114.683594 363.722656 115.53125 363.898438 116.40625 C 364.070312 117.277344 364.15625 118.160156 364.15625 119.050781 C 364.15625 119.9375 364.070312 120.820312 363.898438 121.695312 C 363.722656 122.566406 363.464844 123.414062 363.125 124.238281 C 362.78125 125.058594 362.363281 125.839844 361.871094 126.582031 C 361.375 127.320312 360.8125 128.003906 360.179688 128.632812 C 359.550781 129.261719 358.863281 129.824219 358.125 130.320312 C 357.382812 130.816406 356.601562 131.230469 355.777344 131.574219 C 354.953125 131.914062 354.105469 132.171875 353.230469 132.34375 C 352.355469 132.519531 351.472656 132.605469 350.582031 132.605469 Z M 350.582031 132.605469 " fill-opacity="1" fill-rule="nonzero"/></g><g clip-path="url(#id5)"><path fill="#ffffff" d="M 153.480469 146.398438 L 325.972656 146.398438 L 325.972656 333.898438 L 153.480469 333.898438 L 153.480469 146.398438 " fill-opacity="1" fill-rule="nonzero"/></g><path fill="#000000" d="M 235.664062 266.316406 C 248.339844 266.316406 258.710938 245.832031 258.710938 231.238281 C 258.710938 216.644531 248.339844 204.867188 235.664062 204.867188 C 222.992188 204.867188 212.621094 216.644531 212.621094 231.238281 C 212.621094 245.832031 222.992188 266.316406 235.664062 266.316406 Z M 235.664062 266.316406 " fill-opacity="1" fill-rule="nonzero"/><g clip-path="url(#id6)"><path fill="#000000" d="M 197.257812 199.746094 C 207.117188 199.746094 215.183594 184.382812 215.183594 173.5 C 215.183594 162.492188 207.117188 153.660156 197.257812 153.660156 C 187.402344 153.660156 179.335938 162.492188 179.335938 173.5 C 179.335938 184.382812 187.402344 199.746094 197.257812 199.746094 Z M 197.257812 199.746094 " fill-opacity="1" fill-rule="nonzero"/></g><g clip-path="url(#id7)"><path fill="#000000" d="M 274.070312 199.746094 C 283.929688 199.746094 291.996094 184.382812 291.996094 173.5 C 291.996094 162.492188 283.929688 153.660156 274.070312 153.660156 C 264.214844 153.660156 256.148438 162.492188 256.148438 173.5 C 256.148438 184.382812 264.214844 199.746094 274.070312 199.746094 Z M 274.070312 199.746094 " fill-opacity="1" fill-rule="nonzero"/></g><g clip-path="url(#id8)"><path fill="#000000" d="M 284.824219 283.085938 C 280.34375 278.992188 253.714844 271.4375 253.714844 271.4375 L 235.664062 284.238281 L 217.613281 271.4375 C 217.613281 271.4375 190.988281 278.992188 186.503906 283.085938 C 181.769531 287.441406 179.976562 301.90625 179.335938 310.613281 C 179.082031 314.324219 182.152344 317.398438 186.121094 317.398438 L 285.210938 317.398438 C 289.179688 317.398438 292.25 314.324219 291.996094 310.613281 C 291.355469 301.90625 289.5625 287.441406 284.824219 283.085938 Z M 284.824219 283.085938 " fill-opacity="1" fill-rule="nonzero"/></g><g clip-path="url(#id9)"><path fill="#000000" d="M 207.5 231.238281 C 207.5 221.382812 211.597656 212.675781 217.871094 206.785156 C 214.15625 205.636719 211.214844 204.738281 211.214844 204.738281 L 197.257812 214.851562 L 183.304688 204.867188 C 183.304688 204.867188 162.695312 210.753906 159.238281 213.957031 C 155.652344 217.285156 154.246094 228.550781 153.734375 235.335938 C 153.476562 238.28125 155.910156 240.710938 158.980469 240.710938 L 208.652344 240.710938 C 207.886719 237.382812 207.5 234.183594 207.5 231.238281 Z M 207.5 231.238281 " fill-opacity="1" fill-rule="nonzero"/></g><g clip-path="url(#id10)"><path fill="#000000" d="M 288.027344 204.867188 L 274.070312 214.851562 L 260.117188 204.867188 C 260.117188 204.867188 257.300781 205.636719 253.460938 206.914062 C 259.734375 212.675781 263.828125 221.507812 263.828125 231.238281 C 263.828125 234.183594 263.445312 237.382812 262.679688 240.710938 L 312.347656 240.710938 C 315.421875 240.710938 317.726562 238.28125 317.597656 235.335938 C 317.085938 228.550781 315.804688 217.285156 312.09375 213.957031 C 308.636719 210.753906 288.027344 204.867188 288.027344 204.867188 Z M 288.027344 204.867188 " fill-opacity="1" fill-rule="nonzero"/></g></svg>